<?xml version="1.0" encoding="UTF-8" standalone="no"?>
<!-- Created with Inkscape (http://www.inkscape.org/) -->

<svg
   xmlns:dc="http://purl.org/dc/elements/1.1/"
   xmlns:cc="http://creativecommons.org/ns#"
   xmlns:rdf="http://www.w3.org/1999/02/22-rdf-syntax-ns#"
   xmlns:svg="http://www.w3.org/2000/svg"
   xmlns="http://www.w3.org/2000/svg"
   xmlns:sodipodi="http://sodipodi.sourceforge.net/DTD/sodipodi-0.dtd"
   xmlns:inkscape="http://www.inkscape.org/namespaces/inkscape"
   version="1.1"
   id="svg69"
   width="1600"
   height="1600"
   viewBox="0 0 1600 1600"
   sodipodi:docname="algorave_india_FINAL-black.svg"
   inkscape:version="0.92.2 5c3e80d, 2017-08-06">
  <metadata
     id="metadata75">
    <rdf:RDF>
      <cc:Work
         rdf:about="">
        <dc:format>image/svg+xml</dc:format>
        <dc:type
           rdf:resource="http://purl.org/dc/dcmitype/StillImage" />
        <dc:title></dc:title>
      </cc:Work>
    </rdf:RDF>
  </metadata>
  <defs
     id="defs73" />
  <sodipodi:namedview
     pagecolor="#ffffff"
     bordercolor="#666666"
     borderopacity="1"
     objecttolerance="10"
     gridtolerance="10"
     guidetolerance="10"
     inkscape:pageopacity="0"
     inkscape:pageshadow="2"
     inkscape:window-width="934"
     inkscape:window-height="739"
     id="namedview71"
     showgrid="false"
     inkscape:zoom="0.2837266"
     inkscape:cx="964.23919"
     inkscape:cy="724.26872"
     inkscape:window-x="0"
     inkscape:window-y="0"
     inkscape:window-maximized="0"
     inkscape:current-layer="svg69" />
  <path
     style="fill:#000000;stroke-width:1.33333337"
     d="m 384.65522,1453.0314 c 3.577,-1.6884 6.9027,-3.2835 7.3905,-3.5445 0.4878,-0.2612 1.2782,0.7582 1.7565,2.2653 0.7373,2.3229 1.9758,2.74 8.1369,2.74 h 7.2672 l -0.3571,-32.3333 -0.357,-32.3334 -17.1548,-0.3742 -17.1549,-0.3744 0.7828,3.1188 c 0.4305,1.7153 1.7082,5.3337 2.8394,8.041 1.9809,4.741 2.3013,4.9222 8.7054,4.9222 h 6.6488 l -0.01,6.3333 c -0.011,9.6521 -2.4521,16.4399 -7.854,21.8419 -12.6428,12.6428 -39.33165,9.2632 -46.67719,-5.9107 -2.65959,-5.494 -2.79474,-7.8441 -2.79474,-48.5987 0,-44.3959 0.34532,-47.6063 5.75548,-53.5084 7.10566,-7.7517 25.50703,-10.6595 39.94995,-6.3128 l 6.1293,1.8447 2.0827,-5.205 c 1.146,-2.8627 2.0831,-5.7497 2.0831,-6.4155 0,-0.6658 -3.45,-2.5672 -7.6666,-4.2252 -6.1757,-2.4284 -10.4068,-3.0305 -21.75654,-3.0958 -13.12003,-0.076 -14.63036,0.1951 -21.94272,3.9327 -4.87573,2.4921 -9.50449,6.1792 -12.20932,9.7255 -7.87936,10.3305 -8.42479,14.4601 -8.42479,63.786 0,41.9129 0.15643,44.7926 2.81974,51.911 2.9675,7.9314 10.12764,16.2499 17.08289,19.8466 12.96401,6.704 32.98214,7.5608 44.92704,1.9229 z m 107.837,2.3193 c 13.6673,-3.642 21.5302,-10.0494 27.2226,-22.1837 3.4302,-7.3119 3.4458,-7.5045 3.8819,-47.8608 0.2826,-26.1523 -0.097,-43.5919 -1.0712,-49.1848 -2.7834,-15.9831 -10.5682,-26.64 -23.9656,-32.8073 -4.9842,-2.2944 -8.6866,-2.7958 -20.7344,-2.8075 -13.0038,-0.013 -15.499,0.3761 -22.0081,3.4296 -12.5794,5.9013 -19.4946,14.8025 -22.4943,28.955 -0.9198,4.3395 -1.4976,22.6762 -1.4976,47.5262 0,36.7228 0.2469,41.2599 2.6724,49.1128 5.3807,17.4205 20.6025,27.2304 42.661,27.4936 4.7666,0.057 11.6666,-0.696 15.3333,-1.6731 z m -27.0515,-15.6969 c -2.4116,-0.6955 -6.7062,-3.5859 -9.5434,-6.4232 -7.7312,-7.7312 -8.3788,-12.5747 -7.8531,-58.7384 0.4458,-39.1422 0.4643,-39.3624 3.7981,-45.3166 5.0997,-9.1081 12.4976,-12.7007 25.9832,-12.6181 7.246,0.044 11.9929,0.7708 14.8021,2.2652 6.0434,3.215 12.244,10.8778 13.4655,16.641 0.5862,2.7657 1.0658,23.3285 1.0658,45.6952 0,39.499 -0.085,40.8261 -2.9699,46.221 -4.9928,9.338 -13.9125,13.8678 -26.8958,13.6587 -4.1072,-0.067 -9.4408,-0.6893 -11.8525,-1.3848 z m -348.97246,7.8384 c 1.14364,-3.85 4.29238,-14.6636 6.9972,-24.0303 l 4.91786,-17.0302 22.55033,0.3636 22.55033,0.3636 3.89076,12.6666 c 2.13992,6.9667 5.40308,17.6167 7.25148,23.6667 l 3.36071,11 h 8.58597 c 4.83712,0 8.58599,-0.5824 8.58599,-1.3339 0,-1.0486 -38.2926,-127.9447 -44.15792,-146.3328 -1.36843,-4.2901 -1.46688,-4.3333 -9.8668,-4.3333 -4.66651,0 -8.83886,0.5732 -9.27186,1.2739 -0.43301,0.7006 -10.28936,33.5789 -21.90299,73.0628 -11.61364,39.484 -21.535212,73.1108 -22.047922,74.7261 -0.895851,2.8227 -0.592661,2.9372 7.772652,2.9372 h 8.70486 z m 17.20447,-60.6667 c 0.38145,-1.2833 4.04801,-13.7333 8.14792,-27.6666 4.09989,-13.9334 7.78365,-26.2334 8.18612,-27.3334 0.60808,-1.6619 6.79388,16.7864 17.1005,51 l 1.90788,6.3334 h -18.01798 c -16.5353,0 -17.96091,-0.192 -17.32444,-2.3334 z m 169.88917,60.6667 -0.40301,-7 -31,-0.3579 -31,-0.358 v -68.642 -68.6421 h -8 -8 v 76 76 h 39.40301 39.40301 z m 266.93032,-17.6667 v -24.6666 h 22.353 22.3529 l 8.4841,24.6666 8.484,24.6667 h 7.8297 c 4.3063,0 7.8296,-0.4496 7.8296,-0.9992 0,-0.5496 -3.9433,-12.8299 -8.7629,-27.2896 l -8.7629,-26.2903 4.5647,-4.008 c 2.5106,-2.2042 6.3039,-7.774 8.4296,-12.377 3.7387,-8.096 3.8649,-9.0448 3.8649,-29.0602 v -20.6908 l -4.3936,-8.9283 c -2.5004,-5.0813 -6.4898,-10.6563 -9.2586,-12.9386 -9.1026,-7.5031 -13.9565,-8.4221 -48.0145,-9.0907 l -31,-0.6085 v 76.1405 76.1407 h 8 8 z m 0,-75.914 v -35.4193 l 18.3333,0.032 c 27.0004,0.047 32.4925,1.9366 39,13.4196 3.0436,5.3707 3.3334,7.2726 3.3334,21.8819 0,14.4185 -0.3295,16.6521 -3.3334,22.5973 -5.7835,11.447 -7.3082,12.0054 -34.0929,12.4887 l -23.2404,0.419 z m 116.6701,76.5807 6.8066,-23.3333 22.595,-0.3544 22.595,-0.3544 7.2117,24.021 7.2118,24.0211 h 8.9883 8.9883 l -4.5191,-15 c -2.4856,-8.25 -12.8295,-42.3 -22.9865,-75.6667 l -18.4673,-60.6666 h -9.1245 -9.1245 l -16.2618,55.3333 c -8.944,30.4333 -18.9715,64.5093 -22.2834,75.7244 l -6.0216,20.3911 8.7927,-0.3911 8.7928,-0.3911 z m 13.3523,-47.6667 c 12.6909,-42.7841 15.3228,-51.4563 15.7445,-51.878 0.2708,-0.2708 4.2755,11.966 8.8993,27.1928 4.6239,15.227 8.6798,28.4352 9.0131,29.3519 0.4658,1.2812 -3.5738,1.6667 -17.4648,1.6667 h -18.0708 z m 154.823,-3 c 11.2121,-40.7 20.4086,-74.75 20.4368,-75.6666 0.036,-1.1659 -2.5258,-1.6667 -8.5257,-1.6667 -7.0244,0 -8.698,0.4223 -9.2465,2.3333 -0.3684,1.2834 -8.0233,29.5769 -17.011,62.8744 -11.37,42.1235 -16.6608,59.7682 -17.3916,58 -0.5777,-1.3976 -8.265,-29.1513 -17.0829,-61.6749 -8.8179,-32.5236 -16.3662,-59.6736 -16.7739,-60.3333 -1.1928,-1.9301 -16.5847,-1.4963 -16.5797,0.4672 0,1.513 39.1289,144.681 40.6432,148.723 0.469,1.252 3.4487,1.6166 10.8956,1.3334 l 10.25,-0.3898 z m 112.4879,67.3334 v -7.3334 h -28 -28 v -29.3333 -29.3333 h 16.4232 16.4232 l 2.2435,-7.1172 c 1.2339,-3.9144 2.2435,-7.5144 2.2435,-8 0,-0.4856 -8.4,-0.8828 -18.6667,-0.8828 h -18.6667 v -23.3334 -23.3333 h 28.7332 28.7332 l -0.3998,-7.6667 -0.3999,-7.6666 h -36 -36 l -0.3444,75.6666 -0.3443,75.6667 h 36.011 36.011 z m 101.33338,-68.7104 v -76.0436 l -15,0.377 -15,0.377 v 7.3333 7.3333 l 7,0.403 7,0.4031 v 67.9303 67.9303 h 8 8 z m 50.9862,16.7705 0.3471,-59.2732 36.6667,59.2547 36.6666,59.2548 8.3444,0.019 8.3443,0.019 -0.3443,-75.6667 -0.3444,-75.6666 -7.653,-0.3995 -7.653,-0.3995 -0.347,60.2035 -0.347,60.2035 -34.5484,-55.804 c -19.0016,-30.6923 -35.9822,-57.754 -37.7345,-60.1374 -2.9182,-3.9689 -3.7971,-4.3333 -10.4516,-4.3333 l -7.2655,-4e-4 v 76 76 h 7.9863 7.9863 z m 194.064,55.4207 c 9.4441,-4.2675 16.6525,-12.6312 19.4358,-22.5508 1.7904,-6.381 2.1806,-14.7094 2.1806,-46.5438 0,-35.6524 -0.2261,-39.5074 -2.8102,-47.9124 -2.3364,-7.5992 -4.0789,-10.4022 -10.3334,-16.6231 -11.976,-11.9117 -17.5506,-13.4806 -50.523,-14.2193 l -27,-0.6048 v 76.242 76.242 l 31,-0.422 c 29.349,-0.3994 31.3754,-0.5916 38.0502,-3.6078 z m -53.0502,-71.6059 v -60.7916 l 19,0.4885 c 21.3442,0.5489 27.2407,2.4463 33.4052,10.7492 5.8524,7.8824 6.2614,11.3175 6.2614,52.5874 0,43.0237 -0.3153,45.0874 -7.8601,51.436 -6.1473,5.1725 -11.9784,6.3065 -32.4732,6.3148 l -18.3333,0.01 z m 125.3333,-0.5416 v -76 h -14.6667 -14.6666 v 8 8 h 6.6666 6.6667 v 68 68 h 8 8 z m 44.7824,52 6.8041,-23.3333 22.5836,-0.3636 22.5838,-0.3636 7.2002,24.0302 7.2002,24.0303 h 8.982 8.9821 l -1.2252,-4.3333 c -0.6739,-2.3834 -11.0065,-36.4334 -22.9613,-75.6667 l -21.7362,-71.3333 h -9.1236 -9.1236 l -22.282,75.7232 -22.282,75.7232 8.797,-0.3899 8.7969,-0.3899 z m 11.9121,-43 c 0.336,-0.9167 4.2226,-13.922 8.6367,-28.9007 4.4141,-14.9788 8.2656,-27.4739 8.5589,-27.7672 0.2932,-0.2932 0.8587,0.5622 1.2567,1.9008 0.398,1.3386 4.3527,14.3167 8.7884,28.8404 4.4356,14.5236 8.0648,26.6736 8.0648,27 0,0.3263 -8.0812,0.5934 -17.9581,0.5934 -13.8035,0 -17.8168,-0.3856 -17.3474,-1.6667 z M 490.47072,741.53349 c 171.2452,-296.4273 311.6759,-538.97728 312.0683,-538.99999 0.6134,-0.0355 603.84968,1043.5906 605.06428,1046.7885 0.2546,0.6702 -240.0556,1.1702 -562.47598,1.1702 -449.8001,0 -562.78751,-0.3349 -562.2591,-1.6667 1.02843,-2.5919 518.3583,-897.55771 519.3826,-898.51691 0.4994,-0.4677 108.3561,185.2323 239.68158,412.6666 l 238.7735,413.51701 -217.7735,0.3373 c -119.77548,0.1855 -315.80378,0.1855 -435.61848,0 l -217.8449,-0.3373 195.9139,-338.66661 c 107.7527,-186.2667 196.333,-339.0596 196.845,-339.5398 0.7462,-0.6999 347.79338,599.48571 349.37538,604.21201 0.2942,0.8789 -103.3106,1.3277 -306.47598,1.3277 -267.2215,0 -306.8247,-0.2494 -306.1803,-1.9286 1.1959,-3.1166 261.142,-453.24991 262.7485,-454.98621 1.0881,-1.1759 29.6733,47.3474 111.4634,189.2087 60.5,104.9346 110.19998,191.29631 110.44438,191.91481 0.2445,0.6186 -80.05548,1.1247 -178.44438,1.1247 -109.9839,0 -178.7177,-0.4787 -178.4445,-1.2427 1.0378,-2.9016 135.1774,-234.69491 135.836,-234.72461 0.7419,-0.034 91.2239,156.5451 92.7287,160.4665 0.7589,1.9777 -3.6173,2.1675 -49.9776,2.1675 -27.9451,0 -50.8093,-0.4648 -50.8093,-1.0328 0,-0.5681 4.547,-8.8181 10.1044,-18.3334 5.5575,-9.5153 10.2075,-17.7909 10.3334,-18.3902 0.3479,-1.6564 -24.7062,-15.8534 -25.832,-14.6377 -1.3136,1.4182 -45.1581,77.2113 -46.1298,79.7433 -0.67,1.746 11.5929,1.9841 102.1907,1.9841 81.8319,0 102.8138,-0.3419 102.2784,-1.6667 -0.3704,-0.9166 -33.0854,-57.9556 -72.6999,-126.7533 l -72.0263,-125.0867 -5.2959,9.0867 c -37.8664,64.9719 -182.923,317.10631 -182.923,317.95321 0,0.6234 103.8,1.1334 230.6667,1.1334 126.8666,0 230.66658,-0.4088 230.66658,-0.9085 0,-1.3955 -272.55318,-473.76551 -273.32338,-473.70491 -0.6669,0.052 -314.9167,544.00041 -315.785,546.60541 -0.2991,0.8974 118.3457,1.3414 358.4418,1.3414 206.71608,0 358.70038,-0.4987 358.44438,-1.1761 -0.2444,-0.6469 -90.4444,-157.21591 -200.4444,-347.93121 -114.83918,-199.1053 -200.49898,-346.2571 -201.17178,-345.5855 -0.6444,0.6433 -100.8843,173.5623 -222.7552,384.2645 l -221.58357,383.09491 243.75527,0.3369 c 134.0654,0.1853 353.4417,0.1853 487.50288,0 l 243.7475,-0.3369 -264.7475,-458.23281 C 922.29532,495.56459 802.69012,289.81338 802.11722,290.36771 c -0.573,0.55434 -129.677,223.55908 -286.8979,495.56618 l -285.85618,494.55831 307.89788,0.3362 c 169.3438,0.1849 446.4203,0.1849 615.72548,0 l 307.8277,-0.3362 -328.4744,-568.66001 C 951.67882,399.06919 803.40642,143.02099 802.84542,142.83625 802.13122,142.60102 283.89955,1037.6368 147.44295,1274.7792 l -3.71593,6.4577 17.69444,-0.3723 17.69444,-0.3724 z"
     id="path79"
     inkscape:connector-curvature="0"
     sodipodi:nodetypes="cccscccccccscccssccccsccccsccccccscscccsccccccscccscccscccccccsssscscscscccccsccccccccccccccccccccssscccsccccccccccccccscccccccccccccscccsccccccsccsccscscscscccscscccccccccssccccccccccccccccccccccccccccccccccccccccccccccccccsccccccccccccscccccccccccccccccccccccccccccccccccccsscsscsscsccscsscsccsccscscccssccccscsccsssccscscscsscscscsscscccccs" />
</svg>
